<svg width="200" height="171" viewBox="0 0 200 171" fill="none" xmlns="http://www.w3.org/2000/svg">
<g clip-path="url(#clip0_7_1435)">
<path d="M72.3926 27.6074C72.3926 12.3602 84.7528 0 100 0C115.247 0 127.607 12.3602 127.607 27.6074C127.607 42.8546 115.247 55.2147 100 55.2147C84.7528 55.2147 72.3926 42.8546 72.3926 27.6074Z" fill="url(#paint0_linear_7_1435)"/>
<path d="M21.7791 48.773H23.6196L26.3804 126.074H19.0184L21.7791 48.773Z" fill="#362511"/>
<path d="M15.3374 59.816C14.4172 60.7362 9.81595 61.6565 9.81595 61.6565C9.81595 61.6565 11.6564 63.4969 14.4172 62.5767C17.1779 61.6565 18.0982 60.7362 19.0184 59.816C19.9386 58.8957 19.9386 56.135 19.9386 56.135C19.9386 56.135 16.2577 58.8957 15.3374 59.816Z" fill="#3F4F39"/>
<path d="M14.4172 73.6196C13.4969 74.5399 7.97546 75.4601 7.97546 75.4601C7.97546 75.4601 11.6564 77.3006 14.4172 76.3804C15.2258 76.1107 15.8765 75.9203 16.4156 75.7623C17.717 75.3813 18.3677 75.1905 19.0184 74.5399C19.9387 73.6196 19.7586 69.0749 19.7586 69.0749C19.7586 69.0749 15.3374 72.6994 14.4172 73.6196Z" fill="#3F4F39"/>
<path d="M7.97546 83.7423C7.97546 83.7423 14.4172 83.7423 15.3374 82.8221C16.2577 81.9018 19.7586 80.0614 19.7586 80.0614C19.7586 80.0614 20.8589 82.8221 19.9387 83.7423C19.2879 84.393 18.6373 84.5837 17.3358 84.9647C16.7967 85.1227 16.146 85.3132 15.3374 85.5828C12.5767 86.5031 7.97546 83.7423 7.97546 83.7423Z" fill="#3F4F39"/>
<path d="M16.2577 92.9448C13.4969 93.865 7.97546 92.9448 7.97546 92.9448C7.97546 92.9448 14.4172 96.6258 17.1779 95.7055C18.5583 95.2454 19.0184 95.2454 19.2485 95.2454C19.3144 95.2454 19.3615 95.2454 19.4059 95.2347C19.5164 95.2077 19.6104 95.1135 19.9387 94.7853C20.8589 93.865 19.7586 91.1043 19.7586 91.1043C19.7586 91.1043 19.0184 92.0245 16.2577 92.9448Z" fill="#3F4F39"/>
<path d="M26.3804 90.1841C26.3804 90.1841 28.2209 92.0245 31.9018 92.9448C35.5828 93.865 37.4233 94.7853 37.4233 94.7853C37.4233 94.7853 36.5031 95.7055 33.7423 95.7055C30.9816 95.7055 25.4601 93.865 25.4601 93.865L26.3804 90.1841Z" fill="#3F4F39"/>
<path d="M30.9816 81.9018C27.3006 80.9816 25.4601 78.2209 25.4601 78.2209L24.5399 81.9018C24.5399 81.9018 28.2209 83.7423 30.9816 83.7423C33.7423 83.7423 36.5031 82.8221 36.5031 82.8221C36.5031 82.8221 34.6626 82.8221 30.9816 81.9018Z" fill="#3F4F39"/>
<path d="M25.4601 56.135C25.4601 56.135 26.3804 57.9755 30.0614 58.8957C33.7423 59.816 34.6626 63.4969 34.6626 63.4969C34.6626 63.4969 33.7423 62.5767 30.9816 61.6565C28.2209 60.7362 24.5399 59.816 24.5399 59.816L25.4601 56.135Z" fill="#3F4F39"/>
<path d="M30.9816 66.2577C27.3006 65.3374 25.4601 63.4969 25.4601 63.4969L24.5399 67.1779C24.5399 67.1779 28.2209 69.0184 30.9816 69.0184C33.7423 69.0184 36.5031 67.1779 36.5031 67.1779C36.5031 67.1779 34.6626 67.1779 30.9816 66.2577Z" fill="#3F4F39"/>
<path d="M25.4601 85.5828C25.4601 85.5828 27.3006 87.4233 30.9816 88.3436C34.6626 89.2638 37.4233 91.1043 37.4233 91.1043C37.4233 91.1043 35.5828 92.0245 32.8221 92.0245C30.0614 92.0245 24.5399 89.2638 24.5399 89.2638L25.4601 85.5828Z" fill="#3F4F39"/>
<path d="M20.9842 48.773C20.9842 48.773 17.4506 52.0647 15.5419 54.2592C13.6333 56.4537 9.81596 59.7451 9.81596 59.7451C9.81596 59.7451 15.5419 59.7451 17.4506 58.6479C18.0819 58.285 18.6456 57.7874 19.1172 57.2837L19.0184 57.9755L18.8743 59.2724C17.5258 60.2261 15.7345 61.5285 14.5195 62.5472C12.3381 64.3761 7.97546 67.1187 7.97546 67.1187C7.97546 67.1187 14.5195 67.1187 16.7007 66.2046C17.248 65.9752 17.7507 65.6813 18.1968 65.3693L18.0982 66.2577V68.5972C17.0794 68.9877 16.0043 69.3638 15.1384 69.5816C12.7508 70.1828 7.97546 70.7837 7.97546 70.7837C7.97546 70.7837 12.3889 72.3319 15.1384 72.5865C16.1135 72.6767 17.1572 72.7028 18.0982 72.6991V73.6196L18.4105 74.088C16.8823 74.9172 14.9387 75.8997 13.4969 76.3804C10.7362 77.3006 5.21473 78.2209 5.21473 78.2209C5.21473 78.2209 10.3178 80.592 13.4969 80.9816C15.5041 81.2276 17.7627 81.1629 19.1551 81.0819L19.0184 81.9018V84.1006C17.7406 85.0393 15.5271 86.4175 13.1592 86.7696C9.47819 87.3172 3.37424 87.4233 3.37424 87.4233C3.37424 87.4233 6.71746 90.0552 9.47819 90.6028C11.6958 91.0426 17.476 90.7761 19.6645 90.654L19.9387 92.0245C19.9387 92.0245 17.1779 95.7055 13.4969 96.6258C9.81596 97.546 3.37424 97.546 3.37424 97.546C3.37424 97.546 6.13497 102.147 12.5767 102.147C17.1779 102.147 19.9387 101.227 19.9387 101.227H24.5399C24.5399 101.227 30.9816 103.067 34.6626 102.147C38.3436 101.227 42.0245 98.4663 42.0245 98.4663C42.0245 98.4663 36.5031 98.4663 31.9018 97.546C29.1201 96.9896 27.3474 95.0877 26.3804 93.6709V90.7181C28.5829 90.8663 32.4221 91.1043 34.3249 91.1043C37.0856 91.1043 39.8463 87.4233 39.8463 87.4233C39.8463 87.4233 33.4046 87.4233 30.6439 86.5031C29.1512 86.0055 27.543 85.0788 26.3804 84.3325V81.9018L26.1932 80.592H33.1739C35.9347 80.592 39.2638 76.3804 39.2638 76.3804C39.2638 76.3804 32.8221 76.3804 30.0614 75.4601C28.7009 75.0068 27.3404 74.3298 26.3104 73.7598L26.3804 73.6196L26.1229 72.3319H32.1564C34.5442 72.3319 37.4233 69.5816 37.4233 69.5816C37.4233 69.5816 31.8522 69.5816 29.4645 68.9807C28.1356 68.6463 26.8068 68.1258 25.8897 67.7298L26.3804 66.2577V63.873C27.5068 64.5132 29.2018 65.4374 30.8791 66.2046C33.7681 67.5255 37.4233 67.1187 37.4233 67.1187C37.4233 67.1187 31.9699 63.3491 29.7888 61.6328C28.7147 60.7877 27.419 59.888 26.3804 59.1926V57.9755L25.5838 55.5859C26.5453 56.346 28.2106 57.6156 29.8569 58.6479C32.3847 60.2328 35.5828 59.7451 35.5828 59.7451C35.5828 59.7451 30.811 55.2215 28.9026 53.162C26.9938 51.1025 24.2857 48.773 24.2857 48.773H20.9842Z" fill="#495D40"/>
<path d="M172.699 48.773H174.54L177.301 126.074H169.939L172.699 48.773Z" fill="#362511"/>
<path d="M171.268 54.2945C171.268 54.2945 169.018 56.2614 166.258 58.1018C163.497 59.9423 161.656 62.5767 161.656 62.5767L167.178 59.816C169.018 58.8957 171.268 58.2383 171.268 58.2383V54.2945Z" fill="#3F4F39"/>
<path d="M175.46 54.4209C175.46 54.4209 178.221 56.2614 180.061 57.1816C181.902 58.1018 184.663 61.7828 184.663 61.7828C184.663 61.7828 181.902 60.8626 179.141 59.0221C176.38 57.1816 175.46 57.085 175.46 57.085V54.4209Z" fill="#3F4F39"/>
<path d="M179.141 66.3841C177.301 65.4638 175.46 63.6233 175.46 63.6233V66.2874C175.46 66.2874 176.22 67.7736 179.141 68.2245C182.063 68.6755 184.663 68.2245 184.663 68.2245C184.663 68.2245 180.982 67.3043 179.141 66.3841Z" fill="#3F4F39"/>
<path d="M175.46 78.3472C175.46 78.3472 179.141 81.108 182.121 82.0856C185.1 83.0632 189.264 82.9485 189.264 82.9485C189.264 82.9485 186.503 86.6294 182.121 85.7092C177.738 84.789 175.46 83.7825 175.46 83.7825V78.3472Z" fill="#3F4F39"/>
<path d="M175.46 91.2307C175.46 91.2307 178.406 94.969 182.121 94.969H192.025C192.025 94.969 185.835 98.5926 182.121 98.5926C178.406 98.5926 175.46 96.666 175.46 96.666V91.2307Z" fill="#3F4F39"/>
<path d="M171.779 90.3104C171.779 90.3104 168.098 92.1509 167.178 93.0712C166.258 93.9914 155.215 94.9117 155.215 94.9117C155.215 94.9117 162.577 96.7521 165.337 96.7521C168.098 96.7521 171.779 94.9117 171.779 94.9117V90.3104Z" fill="#3F4F39"/>
<path d="M168.201 82.554C168.916 81.7653 171.779 80.1877 171.779 80.1877V84.1316C171.779 84.1316 168.916 85.7092 166.769 85.7092C164.622 85.7092 158.896 84.1316 158.896 84.1316C158.896 84.1316 167.485 83.3426 168.201 82.554Z" fill="#3F4F39"/>
<path d="M171.268 70.065C171.268 70.065 170.552 71.1169 167.689 72.4313C164.826 73.746 160.736 73.746 160.736 73.746C160.736 73.746 163.629 75.5865 166.258 75.5865C168.886 75.5865 171.268 74.0089 171.268 74.0089V70.065Z" fill="#3F4F39"/>
<path d="M167.178 65.7267C170.041 64.412 171.268 61.7828 171.268 61.7828V65.7267C171.268 65.7267 168.341 68.2245 166.258 68.2245C164.174 68.2245 160.736 67.3043 160.736 67.3043C160.736 67.3043 164.315 67.0414 167.178 65.7267Z" fill="#3F4F39"/>
<path d="M171.905 48.773C171.905 48.773 168.371 52.0647 166.462 54.2592C164.554 56.4537 160.736 59.7451 160.736 59.7451C160.736 59.7451 166.462 59.7451 168.371 58.6479C169.002 58.285 169.566 57.7874 170.037 57.2837L169.939 57.9755L169.794 59.2724C168.446 60.2261 166.655 61.5285 165.44 62.5472C163.258 64.3761 158.896 67.1187 158.896 67.1187C158.896 67.1187 165.44 67.1187 167.621 66.2046C168.168 65.9752 168.671 65.6813 169.117 65.3693L169.018 66.2577V68.5972C168 68.9877 166.925 69.3638 166.059 69.5816C163.671 70.1828 158.896 70.7837 158.896 70.7837C158.896 70.7837 163.309 72.3319 166.059 72.5865C167.034 72.6767 168.077 72.7028 169.018 72.6991V73.6196L169.331 74.088C167.802 74.9172 165.859 75.8997 164.417 76.3804C161.656 77.3006 156.135 78.2209 156.135 78.2209C156.135 78.2209 161.238 80.592 164.417 80.9816C166.425 81.2276 168.683 81.1629 170.075 81.0819L169.939 81.9018V84.1006C168.661 85.0393 166.448 86.4175 164.079 86.7696C160.398 87.3172 154.294 87.4233 154.294 87.4233C154.294 87.4233 157.638 90.0552 160.398 90.6028C162.616 91.0426 168.396 90.7761 170.585 90.654L170.859 92.0245C170.859 92.0245 168.098 95.7055 164.417 96.6258C160.736 97.546 151.534 97.546 151.534 97.546C151.534 97.546 158.896 102.147 161.656 103.067C164.417 103.988 169.939 103.067 169.939 103.067H176.38C176.38 103.067 181.902 103.067 185.583 102.147C189.264 101.227 192.945 98.4663 192.945 98.4663C192.945 98.4663 187.423 98.4663 182.822 97.546C180.04 96.9896 178.267 95.0877 177.301 93.6709V90.7181C179.503 90.8663 183.342 91.1043 185.245 91.1043C188.005 91.1043 190.766 87.4233 190.766 87.4233C190.766 87.4233 184.325 87.4233 181.564 86.5031C180.071 86.0055 178.463 85.0788 177.301 84.3325V81.9018L177.113 80.592H184.094C186.855 80.592 190.184 76.3804 190.184 76.3804C190.184 76.3804 183.742 76.3804 180.982 75.4601C179.621 75.0068 178.261 74.3298 177.231 73.7598L177.301 73.6196L177.043 72.3319H183.077C185.464 72.3319 188.344 69.5816 188.344 69.5816C188.344 69.5816 182.772 69.5816 180.385 68.9807C179.056 68.6463 177.727 68.1258 176.81 67.7298L177.301 66.2577V63.873C178.427 64.5132 180.122 65.4374 181.799 66.2046C184.688 67.5255 188.344 67.1187 188.344 67.1187C188.344 67.1187 182.89 63.3491 180.709 61.6328C179.635 60.7877 178.339 59.888 177.301 59.1926V57.9755L176.504 55.5859C177.466 56.346 179.131 57.6156 180.777 58.6479C183.305 60.2328 186.503 59.7451 186.503 59.7451C186.503 59.7451 181.731 55.2215 179.823 53.162C177.914 51.1025 175.206 48.773 175.206 48.773H171.905Z" fill="#495D40"/>
<path d="M47.546 23.0061H49.3865L52.1472 100.307H44.7853L47.546 23.0061Z" fill="#362511"/>
<path d="M46.1144 26.5608C46.1144 26.5608 43.865 28.5276 41.1043 30.3681C38.3436 32.2086 36.5031 34.8429 36.5031 34.8429L42.0245 32.0822C43.865 31.162 46.1144 30.5047 46.1144 30.5047V26.5608Z" fill="#3F4F39"/>
<path d="M50.3067 26.6871C50.3067 26.6871 53.0675 28.5276 54.908 29.4479C56.7485 30.3681 59.5092 34.0491 59.5092 34.0491C59.5092 34.0491 56.7485 33.1288 53.9877 31.2883C51.227 29.4479 50.3067 29.3514 50.3067 29.3514V26.6871Z" fill="#3F4F39"/>
<path d="M53.9877 38.6503C52.1472 37.7301 50.3067 35.8896 50.3067 35.8896V38.554C50.3067 38.554 51.0663 40.0396 53.9877 40.4908C56.9092 40.942 59.5092 40.4908 59.5092 40.4908C59.5092 40.4908 55.8282 39.5706 53.9877 38.6503Z" fill="#3F4F39"/>
<path d="M50.3067 50.6135C50.3067 50.6135 53.9877 53.3742 56.9672 54.3518C59.9466 55.3294 64.1104 55.2147 64.1104 55.2147C64.1104 55.2147 61.3497 58.8957 56.9672 57.9755C52.5847 57.0552 50.3067 56.0488 50.3067 56.0488V50.6135Z" fill="#3F4F39"/>
<path d="M50.3067 63.4969C50.3067 63.4969 53.2531 67.2353 56.9672 67.2353H66.8712C66.8712 67.2353 60.6813 70.8589 56.9672 70.8589C53.2531 70.8589 50.3067 68.9322 50.3067 68.9322V63.4969Z" fill="#3F4F39"/>
<path d="M43.0472 54.8203C43.7626 54.0316 46.6258 52.454 46.6258 52.454V56.3979C46.6258 56.3979 43.7626 57.9755 41.6156 57.9755C39.4684 57.9755 33.7423 56.3979 33.7423 56.3979C33.7423 56.3979 42.3313 55.6092 43.0472 54.8203Z" fill="#3F4F39"/>
<path d="M46.1144 42.3313C46.1144 42.3313 45.3988 43.3828 42.5359 44.6976C39.6727 46.0123 35.5828 46.0123 35.5828 46.0123C35.5828 46.0123 38.4755 47.8528 41.1043 47.8528C43.7331 47.8528 46.1144 46.2752 46.1144 46.2752V42.3313Z" fill="#3F4F39"/>
<path d="M42.0245 37.9929C44.8877 36.6782 46.1144 34.0491 46.1144 34.0491V37.9929C46.1144 37.9929 43.188 40.4908 41.1043 40.4908C39.0206 40.4908 35.5828 39.5705 35.5828 39.5705C35.5828 39.5705 39.1614 39.3077 42.0245 37.9929Z" fill="#3F4F39"/>
<path d="M46.6258 62.5767C46.6258 62.5767 42.9448 64.4172 42.0245 65.3374C41.1043 66.2577 30.0613 67.1779 30.0613 67.1779C30.0613 67.1779 37.4233 69.0184 40.184 69.0184C42.9448 69.0184 46.6258 67.1779 46.6258 67.1779V62.5767Z" fill="#3F4F39"/>
<path d="M46.7512 19.3251C46.7512 19.3251 43.2175 22.8383 41.3089 25.1804C39.4003 27.5225 35.5828 31.0356 35.5828 31.0356C35.5828 31.0356 41.3089 31.0356 43.2175 29.8646C43.8488 29.4772 44.4123 28.946 44.8841 28.4085L44.7853 29.1468L44.6411 30.5309C43.2926 31.5491 41.5012 32.939 40.2865 34.0261C38.1049 35.9779 33.7423 38.9055 33.7423 38.9055C33.7423 38.9055 40.2865 38.9055 42.4675 37.9298C43.015 37.685 43.5175 37.3712 43.9638 37.0383L43.865 37.9865V40.4831C42.8463 40.9 41.7712 41.3012 40.9052 41.534C38.5178 42.1755 33.7423 42.8169 33.7423 42.8169C33.7423 42.8169 38.1558 44.4693 40.9052 44.7408C41.8804 44.8371 42.9239 44.865 43.865 44.8613V45.8436L44.1773 46.3439C42.6491 47.2285 40.7055 48.2773 39.2638 48.7902C36.5031 49.7724 30.9816 50.7546 30.9816 50.7546C30.9816 50.7546 36.0847 53.2853 39.2638 53.7009C41.2712 53.9635 43.5295 53.8945 44.9221 53.808L44.7853 54.6831V57.0298C43.5074 58.0316 41.2942 59.5028 38.9261 59.8788C35.2451 60.4632 29.1411 60.5764 29.1411 60.5764C29.1411 60.5764 32.4844 63.3853 35.2451 63.9696C37.4626 64.439 43.2426 64.1543 45.4316 64.0242L45.7055 65.4871C45.7055 65.4871 42.9448 69.4156 39.2638 70.3979C35.5828 71.3801 26.3804 71.3801 26.3804 71.3801C26.3804 71.3801 33.7423 76.2908 36.5031 77.273C39.2638 78.2552 44.7853 77.273 44.7853 77.273H51.227C51.227 77.273 56.7485 77.273 60.4295 76.2908C64.1104 75.3089 67.7914 72.3623 67.7914 72.3623C67.7914 72.3623 62.2699 72.3623 57.6687 71.3801C54.8871 70.7865 53.1141 68.7564 52.1472 67.2442V64.0926C54.3497 64.2506 58.189 64.5049 60.0917 64.5049C62.8525 64.5049 65.6132 60.5764 65.6132 60.5764C65.6132 60.5764 59.1715 60.5764 56.4107 59.5939C54.9181 59.0629 53.3098 58.0742 52.1472 57.2776V54.6831L51.9601 53.2853H58.9408C61.7015 53.2853 65.0307 48.7902 65.0307 48.7902C65.0307 48.7902 58.589 48.7902 55.8282 47.808C54.4678 47.3239 53.1074 46.6015 52.0773 45.9932L52.1472 45.8436L51.8899 44.4693H57.9233C60.311 44.4693 63.1902 41.534 63.1902 41.534C63.1902 41.534 57.619 41.534 55.2313 40.8926C53.9025 40.5356 52.5736 39.9804 51.6564 39.5577L52.1472 37.9865V35.4411C53.2736 36.1245 54.9687 37.111 56.646 37.9298C59.535 39.3393 63.1902 38.9055 63.1902 38.9055C63.1902 38.9055 57.7368 34.8822 55.5555 33.0503C54.4816 32.1485 53.1859 31.1883 52.1472 30.4459V29.1468L51.3506 26.5965C52.3123 27.4077 53.9773 28.7628 55.6236 29.8646C58.1515 31.5561 61.3497 31.0356 61.3497 31.0356C61.3497 31.0356 56.5779 26.2075 54.6693 24.0093C52.7607 21.8111 50.0525 19.3252 50.0525 19.3252L46.7512 19.3251Z" fill="#495D40"/>
<path d="M141.411 26.6871H143.252L146.012 103.988H138.65L141.411 26.6871Z" fill="#362511"/>
<path d="M134.969 35.8896C134.049 36.8098 129.448 37.7301 129.448 37.7301C129.448 37.7301 131.288 39.5706 134.049 38.6503C136.81 37.7301 137.73 36.8098 138.65 35.8896C139.571 34.9693 139.571 32.2086 139.571 32.2086C139.571 32.2086 135.89 34.9693 134.969 35.8896Z" fill="#3F4F39"/>
<path d="M134.049 49.6933C133.129 50.6135 127.607 51.5337 127.607 51.5337C127.607 51.5337 131.288 53.3742 134.049 52.454C134.858 52.1844 135.508 51.9939 136.048 51.8359C137.349 51.4549 138 51.2641 138.65 50.6135C139.571 49.6933 139.39 45.1485 139.39 45.1485C139.39 45.1485 134.969 48.773 134.049 49.6933Z" fill="#3F4F39"/>
<path d="M127.607 59.816C127.607 59.816 134.049 59.816 134.969 58.8957C135.89 57.9755 139.39 56.135 139.39 56.135C139.39 56.135 140.491 58.8957 139.571 59.816C138.92 60.4666 138.269 60.6574 136.968 61.0384C136.429 61.1963 135.778 61.3868 134.969 61.6565C132.209 62.5767 127.607 59.816 127.607 59.816Z" fill="#3F4F39"/>
<path d="M135.89 69.0184C133.129 69.9387 127.607 69.0184 127.607 69.0184C127.607 69.0184 134.049 72.6994 136.81 71.7791C138.19 71.319 138.65 71.319 138.88 71.319C138.946 71.319 138.993 71.319 139.038 71.3083C139.148 71.2813 139.242 71.1871 139.571 70.8589C140.491 69.9387 139.39 67.1779 139.39 67.1779C139.39 67.1779 138.65 68.0982 135.89 69.0184Z" fill="#3F4F39"/>
<path d="M146.012 66.2577C146.012 66.2577 147.853 68.0982 151.534 69.0184C155.215 69.9387 157.055 70.8589 157.055 70.8589C157.055 70.8589 156.135 71.7791 153.374 71.7791C150.613 71.7791 145.092 69.9387 145.092 69.9387L146.012 66.2577Z" fill="#3F4F39"/>
<path d="M150.614 57.9755C146.933 57.0552 145.092 54.2945 145.092 54.2945L144.172 57.9755C144.172 57.9755 147.853 59.816 150.614 59.816C153.374 59.816 156.135 58.8957 156.135 58.8957C156.135 58.8957 154.294 58.8957 150.614 57.9755Z" fill="#3F4F39"/>
<path d="M145.092 32.2086C145.092 32.2086 146.012 34.0491 149.693 34.9693C153.374 35.8896 154.294 39.5706 154.294 39.5706C154.294 39.5706 153.374 38.6503 150.614 37.7301C147.853 36.8098 144.172 35.8896 144.172 35.8896L145.092 32.2086Z" fill="#3F4F39"/>
<path d="M150.614 42.3313C146.933 41.411 145.092 39.5706 145.092 39.5706L144.172 43.2515C144.172 43.2515 147.853 45.092 150.614 45.092C153.374 45.092 156.135 43.2515 156.135 43.2515C156.135 43.2515 154.294 43.2515 150.614 42.3313Z" fill="#3F4F39"/>
<path d="M145.092 61.6564C145.092 61.6564 146.933 63.4969 150.614 64.4172C154.294 65.3374 157.055 67.1779 157.055 67.1779C157.055 67.1779 155.215 68.0982 152.454 68.0982C149.693 68.0982 144.172 65.3374 144.172 65.3374L145.092 61.6564Z" fill="#3F4F39"/>
<path d="M140.616 23.0061C140.616 23.0061 137.083 26.5193 135.174 28.8613C133.265 31.2034 129.448 34.7166 129.448 34.7166C129.448 34.7166 135.174 34.7166 137.083 33.5457C137.714 33.1583 138.277 32.627 138.749 32.0896L138.65 32.8279L138.506 34.212C137.158 35.2301 135.366 36.6199 134.152 37.7071C131.97 39.6589 127.607 42.5865 127.607 42.5865C127.607 42.5865 134.152 42.5865 136.333 41.6107C136.88 41.3656 137.383 41.0521 137.829 40.7193L137.73 41.6675V44.1641C136.711 44.581 135.636 44.9822 134.77 45.215C132.383 45.8564 127.607 46.4979 127.607 46.4979C127.607 46.4979 132.021 48.1503 134.77 48.4218C135.745 48.5181 136.789 48.546 137.73 48.5423V49.5245L138.042 50.0248C136.514 50.9095 134.571 51.9583 133.129 52.4712C130.368 53.4534 124.847 54.4356 124.847 54.4356C124.847 54.4356 129.95 56.9663 133.129 57.3819C135.136 57.6445 137.394 57.5755 138.787 57.489L138.65 58.3641V60.7107C137.372 61.7126 135.159 63.1837 132.791 63.5598C129.11 64.1442 123.006 64.2574 123.006 64.2574C123.006 64.2574 126.349 67.0663 129.11 67.6506C131.328 68.1199 137.108 67.8353 139.297 67.7052L139.571 69.1681C139.571 69.1681 136.81 73.0966 133.129 74.0788C129.448 75.061 120.245 75.061 120.245 75.061C120.245 75.061 127.607 79.9718 130.368 80.954C133.129 81.9362 138.65 80.954 138.65 80.954H145.092C145.092 80.954 150.613 80.954 154.294 79.9718C157.975 78.9899 161.656 76.0433 161.656 76.0433C161.656 76.0433 156.135 76.0433 151.534 75.061C148.752 74.4675 146.979 72.4374 146.012 70.9252V67.7736C148.215 67.9316 152.054 68.1859 153.957 68.1859C156.717 68.1859 159.478 64.2574 159.478 64.2574C159.478 64.2574 153.037 64.2574 150.276 63.2748C148.783 62.7439 147.175 61.7552 146.012 60.9586V58.3641L145.825 56.9663H152.806C155.567 56.9663 158.896 52.4712 158.896 52.4712C158.896 52.4712 152.454 52.4712 149.693 51.489C148.333 51.0049 146.972 50.2825 145.942 49.6742L146.012 49.5245L145.755 48.1503H151.788C154.176 48.1503 157.055 45.215 157.055 45.215C157.055 45.215 151.484 45.215 149.096 44.5736C147.767 44.2166 146.439 43.6613 145.521 43.2386L146.012 41.6675V39.1221C147.139 39.8055 148.834 40.792 150.511 41.6107C153.4 43.0202 157.055 42.5865 157.055 42.5865C157.055 42.5865 151.602 38.5632 149.421 36.7313C148.347 35.8294 147.051 34.8693 146.012 34.127V32.8279L145.216 30.2775C146.177 31.0886 147.842 32.4439 149.489 33.5457C152.017 35.2371 155.215 34.7166 155.215 34.7166C155.215 34.7166 150.443 29.8885 148.534 27.6903C146.626 25.4921 143.917 23.0062 143.917 23.0062L140.616 23.0061Z" fill="#495D40"/>
<path d="M111.963 88.3436L128.528 61.6564L158.896 126.074H96.319L111.963 88.3436Z" fill="#343434"/>
<path d="M130.783 66.4417L128.528 61.6564L125.557 66.4417H130.783Z" fill="#F4F4F4"/>
<path d="M120.988 73.8037L124.644 67.9141H131.478L134.254 73.8037H120.988Z" fill="#F4F4F4"/>
<path d="M120.074 75.2761L116.418 81.1657H137.725L134.948 75.2761H120.074Z" fill="#F4F4F4"/>
<path d="M111.887 88.5276L111.963 88.3436L115.505 82.638H138.419L141.195 88.5276H111.887Z" fill="#F4F4F4"/>
<path d="M111.276 90L108.834 95.8896H144.666L141.89 90H111.276Z" fill="#F4F4F4"/>
<path d="M105.782 103.252L108.224 97.362H145.36L148.137 103.252H105.782Z" fill="#F4F4F4"/>
<path d="M105.171 104.724L102.729 110.614H151.607L148.831 104.724H105.171Z" fill="#F4F4F4"/>
<path d="M99.6767 117.975L102.119 112.086H152.302L155.078 117.975H99.6767Z" fill="#F4F4F4"/>
<path d="M99.0663 119.448L96.6242 125.337H158.548L155.772 119.448H99.0663Z" fill="#F4F4F4"/>
<path d="M131.288 56.135L165.337 126.074H157.975L128.528 61.6565L131.288 56.135Z" fill="#424242"/>
<path d="M54.908 64.4172L131.288 56.135L96.319 126.074H29.1411L54.908 64.4172Z" fill="#343434"/>
<path d="M70.5521 50.6135H83.4356V81.9018H70.5521V50.6135Z" fill="#262626"/>
<path d="M83.4356 50.6135H90.7975V66.2577L83.4356 81.9018V50.6135Z" fill="#F4F4F4"/>
<path d="M120.245 100.307H134.969V126.074H120.245V100.307Z" fill="#343434"/>
<path d="M10.4394 169.729H0V140.28H10.5257C13.4878 140.28 16.0377 140.869 18.1755 142.048C20.3132 143.218 21.9572 144.901 23.1076 147.096C24.2675 149.291 24.8475 151.917 24.8475 154.975C24.8475 158.043 24.2675 160.679 23.1076 162.884C21.9572 165.089 20.3036 166.781 18.1467 167.96C15.9994 169.139 13.4303 169.729 10.4394 169.729ZM6.22626 164.394H10.1806C12.0211 164.394 13.5693 164.068 14.8251 163.416C16.0905 162.755 17.0395 161.734 17.6722 160.353C18.3144 158.964 18.6356 157.171 18.6356 154.975C18.6356 152.799 18.3144 151.021 17.6722 149.641C17.0395 148.26 16.0952 147.244 14.8394 146.592C13.5837 145.94 12.0355 145.615 10.1949 145.615H6.22626V164.394Z" fill="url(#paint1_linear_7_1435)"/>
<path d="M29.4596 169.729V140.28H41.0782C43.3021 140.28 45.2003 140.678 46.7724 141.473C48.354 142.26 49.5571 143.376 50.3816 144.824C51.2156 146.262 51.6325 147.954 51.6325 149.9C51.6325 151.855 51.2107 153.538 50.3672 154.947C49.5236 156.346 48.3012 157.42 46.7003 158.168C45.1092 158.916 43.1822 159.289 40.9199 159.289H33.1408V154.285H39.9135C41.1021 154.285 42.0896 154.122 42.8755 153.797C43.6617 153.471 44.2463 152.982 44.6298 152.33C45.0227 151.678 45.2193 150.868 45.2193 149.9C45.2193 148.922 45.0227 148.098 44.6298 147.426C44.2463 146.756 43.6568 146.247 42.861 145.902C42.0752 145.548 41.0828 145.37 39.8847 145.37H35.6859V169.729H29.4596ZM45.3632 156.327L52.6822 169.729H45.8089L38.6482 156.327H45.3632Z" fill="url(#paint2_linear_7_1435)"/>
<path d="M56.0325 169.729V140.28H75.8761V145.413H62.2589V152.43H74.8552V157.564H62.2589V164.595H75.9337V169.729H56.0325Z" fill="url(#paint3_linear_7_1435)"/>
<path d="M86.1466 140.28L93.2644 162.654H93.5374L100.67 140.28H107.572L97.4199 169.729H89.3963L79.2301 140.28H86.1466Z" fill="url(#paint4_linear_7_1435)"/>
<path d="M136.517 155.004C136.517 158.216 135.909 160.948 134.691 163.201C133.483 165.453 131.834 167.174 129.744 168.363C127.664 169.542 125.325 170.131 122.728 170.131C120.11 170.131 117.762 169.537 115.682 168.348C113.602 167.16 111.957 165.439 110.749 163.186C109.542 160.933 108.938 158.206 108.938 155.004C108.938 151.793 109.542 149.061 110.749 146.808C111.957 144.556 113.602 142.84 115.682 141.66C117.762 140.472 120.11 139.877 122.728 139.877C125.325 139.877 127.664 140.472 129.744 141.66C131.834 142.84 133.483 144.556 134.691 146.808C135.909 149.061 136.517 151.793 136.517 155.004ZM130.205 155.004C130.205 152.924 129.893 151.17 129.27 149.741C128.656 148.313 127.789 147.23 126.667 146.492C125.546 145.754 124.233 145.385 122.728 145.385C121.222 145.385 119.909 145.754 118.787 146.492C117.666 147.23 116.794 148.313 116.171 149.741C115.557 151.17 115.25 152.924 115.25 155.004C115.25 157.085 115.557 158.839 116.171 160.267C116.794 161.695 117.666 162.779 118.787 163.517C119.909 164.255 121.222 164.624 122.728 164.624C124.233 164.624 125.546 164.255 126.667 163.517C127.789 162.779 128.656 161.695 129.27 160.267C129.893 158.839 130.205 157.085 130.205 155.004Z" fill="url(#paint5_linear_7_1435)"/>
<path d="M149.883 164.552V159.649L162.177 140.28H166.405V147.067H163.903L156.152 159.333V159.563H173.623V164.552H149.883ZM164.018 169.729V163.057L164.133 160.886V140.28H169.971V169.729H164.018Z" fill="url(#paint6_linear_7_1435)"/>
<path d="M188.657 170.131C186.51 170.131 184.597 169.762 182.919 169.024C181.251 168.276 179.933 167.251 178.965 165.947C178.006 164.634 177.513 163.119 177.484 161.403H183.753C183.792 162.122 184.027 162.755 184.458 163.301C184.899 163.838 185.484 164.255 186.212 164.552C186.941 164.849 187.76 164.998 188.671 164.998C189.62 164.998 190.459 164.83 191.187 164.495C191.916 164.159 192.487 163.694 192.898 163.1C193.311 162.506 193.517 161.82 193.517 161.044C193.517 160.258 193.296 159.563 192.856 158.959C192.424 158.345 191.801 157.866 190.986 157.521C190.181 157.176 189.222 157.003 188.11 157.003H185.364V152.43H188.11C189.05 152.43 189.879 152.267 190.598 151.941C191.326 151.616 191.892 151.165 192.295 150.59C192.697 150.005 192.898 149.325 192.898 148.548C192.898 147.81 192.721 147.163 192.367 146.607C192.021 146.041 191.533 145.6 190.9 145.284C190.277 144.967 189.548 144.81 188.714 144.81C187.871 144.81 187.099 144.963 186.399 145.27C185.699 145.567 185.139 145.993 184.717 146.549C184.295 147.105 184.07 147.757 184.041 148.505H178.074C178.102 146.808 178.587 145.313 179.526 144.018C180.465 142.725 181.731 141.713 183.322 140.984C184.923 140.246 186.73 139.877 188.743 139.877C190.775 139.877 192.553 140.246 194.078 140.984C195.602 141.723 196.786 142.72 197.629 143.975C198.483 145.221 198.904 146.621 198.895 148.174C198.904 149.823 198.391 151.198 197.356 152.301C196.33 153.403 194.993 154.103 193.344 154.4V154.63C195.511 154.909 197.16 155.661 198.291 156.888C199.432 158.106 199.997 159.63 199.988 161.461C199.997 163.138 199.513 164.629 198.535 165.933C197.567 167.237 196.23 168.262 194.523 169.01C192.817 169.758 190.862 170.131 188.657 170.131Z" fill="url(#paint7_linear_7_1435)"/>
</g>
<defs>
<linearGradient id="paint0_linear_7_1435" x1="100" y1="0" x2="100" y2="55.2147" gradientUnits="userSpaceOnUse">
<stop stop-color="#E87E26"/>
<stop offset="1" stop-color="#E8E301"/>
</linearGradient>
<linearGradient id="paint1_linear_7_1435" x1="99.7583" y1="136.599" x2="99.7583" y2="173.41" gradientUnits="userSpaceOnUse">
<stop stop-color="#E98026"/>
<stop offset="1" stop-color="#E9DD04"/>
</linearGradient>
<linearGradient id="paint2_linear_7_1435" x1="99.7583" y1="136.599" x2="99.7583" y2="173.41" gradientUnits="userSpaceOnUse">
<stop stop-color="#E98026"/>
<stop offset="1" stop-color="#E9DD04"/>
</linearGradient>
<linearGradient id="paint3_linear_7_1435" x1="99.7583" y1="136.599" x2="99.7583" y2="173.41" gradientUnits="userSpaceOnUse">
<stop stop-color="#E98026"/>
<stop offset="1" stop-color="#E9DD04"/>
</linearGradient>
<linearGradient id="paint4_linear_7_1435" x1="99.7583" y1="136.599" x2="99.7583" y2="173.41" gradientUnits="userSpaceOnUse">
<stop stop-color="#E98026"/>
<stop offset="1" stop-color="#E9DD04"/>
</linearGradient>
<linearGradient id="paint5_linear_7_1435" x1="99.7583" y1="136.599" x2="99.7583" y2="173.41" gradientUnits="userSpaceOnUse">
<stop stop-color="#E98026"/>
<stop offset="1" stop-color="#E9DD04"/>
</linearGradient>
<linearGradient id="paint6_linear_7_1435" x1="99.7583" y1="136.599" x2="99.7583" y2="173.41" gradientUnits="userSpaceOnUse">
<stop stop-color="#E98026"/>
<stop offset="1" stop-color="#E9DD04"/>
</linearGradient>
<linearGradient id="paint7_linear_7_1435" x1="99.7583" y1="136.599" x2="99.7583" y2="173.41" gradientUnits="userSpaceOnUse">
<stop stop-color="#E98026"/>
<stop offset="1" stop-color="#E9DD04"/>
</linearGradient>
<clipPath id="clip0_7_1435">
<rect width="200" height="170.245" fill="white"/>
</clipPath>
</defs>
</svg>
