<svg width="60" height="60" viewBox="0 0 60 60" fill="none" xmlns="http://www.w3.org/2000/svg">
<g clip-path="url(#clip0_7_1508)">
<rect x="2" y="2" width="56" height="56" rx="28" stroke="white" stroke-width="4"/>
<path d="M44.865 38.9131L44.7157 38.4631C44.3621 37.4118 43.2029 36.3153 42.1379 36.0264L38.1966 34.9495C37.1278 34.6586 35.6031 35.0497 34.8211 35.8318L33.3946 37.2585C28.2106 35.8575 24.1455 31.7915 22.7466 26.6075L24.1731 25.1807C24.9551 24.3986 25.3461 22.8757 25.0553 21.8066L23.9805 17.8626C23.6898 16.7955 22.5914 15.6361 21.5423 15.2863L21.0924 15.135C20.0412 14.7852 18.5421 15.139 17.7601 15.9211L15.6264 18.0572C15.2452 18.4364 15.0015 19.5212 15.0015 19.5251C14.9269 26.3009 17.5833 32.829 22.3753 37.622C27.1555 42.4031 33.658 45.0561 40.4128 44.9991C40.4482 44.9991 41.5642 44.7593 41.9454 44.38L44.0791 42.2458C44.8611 41.4638 45.2147 39.9645 44.865 38.9131Z" fill="white"/>
</g>
<defs>
<clipPath id="clip0_7_1508">
<rect width="60" height="60" fill="white"/>
</clipPath>
</defs>
</svg>
