<svg width="60" height="60" viewBox="0 0 60 60" fill="none" xmlns="http://www.w3.org/2000/svg">
<path d="M0 60C0.834745 57.5148 1.6211 55.1856 2.40745 52.8565C3.19381 50.5513 3.89548 48.2102 4.79071 45.941C5.25043 44.7885 5.10525 43.9241 4.52456 42.8435C1.35495 37.0086 0.411324 30.7535 1.51222 24.2463C2.44375 18.7356 4.80281 13.8612 8.6136 9.71914C14.8923 2.91177 22.7317 -0.353843 31.9986 0.0303466C38.7854 0.306483 44.7859 2.7677 49.9032 7.2219C54.6698 11.364 57.7789 16.5145 59.2185 22.6375C60.3799 27.572 60.2468 32.4824 58.8193 37.3448C57.0046 43.5038 53.5326 48.5824 48.3668 52.4483C41.1929 57.8269 33.1478 59.4958 24.377 57.8029C21.7397 57.2987 19.2233 56.3622 16.8522 55.0896C16.465 54.8855 16.1384 54.8375 15.715 54.9815C11.2146 56.4222 6.70216 57.8509 2.20179 59.2796C1.52432 59.4958 0.834745 59.7239 0 60ZM7.65788 52.4723C7.89983 52.4123 8.00871 52.3882 8.11759 52.3522C10.9364 51.4638 13.7551 50.5633 16.586 49.6989C16.8522 49.6149 17.2151 49.6869 17.4692 49.807C18.691 50.4073 19.8645 51.1276 21.1227 51.6559C26.3005 53.8289 31.6356 54.1771 37.0312 52.6884C43.4672 50.8995 48.4031 47.0936 51.7784 41.3428C54.6698 36.4203 55.6618 31.1017 54.7665 25.5069C53.6293 18.3874 49.9516 12.7927 43.8665 8.81869C38.5918 5.38499 32.7849 4.22042 26.5909 5.1929C21.2558 6.03332 16.6949 8.44651 12.9325 12.3124C9.7024 15.6261 7.5369 19.54 6.59328 24.0422C5.25043 30.4894 6.24244 36.5884 9.84757 42.1472C10.5734 43.2637 10.5492 44.1161 10.1137 45.2567C9.23059 47.5979 8.49262 49.987 7.65788 52.4723Z" fill="white"/>
<path d="M45.79 37.657C45.7537 39.9741 44.6528 41.739 42.4268 42.8435C40.2371 43.9241 38.0112 44.2002 35.7247 43.3118C33.6681 42.5074 31.5872 41.727 29.6032 40.7545C26.9901 39.4699 24.8488 37.5489 22.889 35.4239C20.7235 33.0707 18.8846 30.4534 17.3724 27.656C16.2957 25.675 15.6424 23.574 15.8723 21.2689C16.1142 18.8196 17.2635 16.8627 19.1991 15.3859C19.5863 15.0978 20.167 14.9657 20.663 14.9177C21.3041 14.8697 21.9453 14.9657 22.5865 15.0138C23.1188 15.0618 23.4092 15.434 23.5906 15.8662C24.0624 17.0187 24.4859 18.1713 24.9335 19.3359C25.2359 20.1163 25.4658 20.9327 25.8287 21.6891C26.2763 22.6255 25.9981 23.4059 25.4174 24.1263C24.9214 24.7386 24.4012 25.3269 23.8326 25.8551C23.3608 26.2993 23.2761 26.7556 23.5906 27.2958C24.9819 29.757 26.6756 31.9661 28.9136 33.755C30.3896 34.9316 32.0228 35.808 33.7164 36.6244C34.2124 36.8646 34.6964 36.8285 35.0835 36.3843C35.9182 35.4359 36.7651 34.4994 37.5877 33.5389C38.12 32.9266 38.3862 32.8066 39.0999 33.1667C41.1687 34.1992 43.2132 35.2678 45.2698 36.3363C45.7537 36.6004 45.8747 37.0326 45.79 37.657Z" fill="white"/>
</svg>
